<?xml version="1.0" standalone="no"?>
<!DOCTYPE svg PUBLIC "-//W3C//DTD SVG 20010904//EN"
 "http://www.w3.org/TR/2001/REC-SVG-20010904/DTD/svg10.dtd">
<svg version="1.0" xmlns="http://www.w3.org/2000/svg"
 width="518.000000pt" height="171.000000pt" viewBox="0 0 518.000000 171.000000"
 preserveAspectRatio="xMidYMid meet">

<g transform="translate(0.000000,171.000000) scale(0.100000,-0.100000)"
fill="#000000" stroke="none">
<path d="M2822 1429 c-72 -12 -122 -40 -169 -93 -63 -72 -73 -117 -73 -345 0
-223 9 -272 63 -343 20 -27 55 -54 92 -73 53 -27 68 -30 149 -30 78 1 98 4
142 27 86 45 151 134 170 233 l6 35 -78 0 -79 0 -22 -50 c-26 -61 -70 -90
-133 -90 -52 0 -100 25 -127 67 -15 23 -19 54 -21 197 -4 179 2 224 39 269 24
31 89 51 136 42 44 -8 99 -57 113 -100 l12 -35 80 0 81 0 -7 32 c-10 50 -50
131 -85 171 -63 71 -176 105 -289 86z"/>
<path d="M260 990 l0 -440 295 0 295 0 0 75 0 75 -215 0 -215 0 0 105 0 105
180 0 180 0 0 75 0 75 -180 0 -180 0 0 105 0 105 215 0 215 0 0 80 0 80 -295
0 -295 0 0 -440z"/>
<path d="M1010 989 l0 -441 198 4 c236 5 270 14 349 93 74 75 83 112 83 345 0
215 -10 263 -66 328 -74 87 -165 112 -411 112 l-153 0 0 -441z m407 255 c55
-40 63 -72 63 -253 0 -144 -3 -170 -20 -206 -30 -62 -67 -79 -187 -83 l-102
-4 -3 287 c-2 158 -2 287 -1 288 1 1 51 0 111 -3 91 -4 116 -9 139 -26z"/>
<path d="M1792 1098 c3 -323 4 -335 26 -384 29 -64 82 -116 147 -146 72 -32
218 -32 290 0 109 50 162 135 172 278 l6 84 -82 0 -81 0 0 -57 c0 -71 -22
-119 -70 -151 -30 -20 -45 -23 -102 -20 -54 3 -72 8 -93 28 -54 51 -55 55 -55
390 l0 310 -81 0 -80 0 3 -332z"/>
<path d="M2328 1419 c-10 -5 -18 -20 -18 -33 0 -19 6 -23 45 -25 41 -2 45 0
45 22 0 41 -34 59 -72 36z"/>
<path d="M3423 1008 c-89 -233 -165 -431 -168 -440 -6 -16 1 -18 78 -18 l86 0
22 70 23 70 167 0 168 0 21 -57 c11 -32 23 -64 25 -70 3 -9 30 -13 86 -13 79
0 81 1 75 23 -3 12 -77 209 -165 437 l-159 415 -49 3 -49 3 -161 -423z m267
-7 c27 -78 50 -146 50 -152 0 -9 -202 -13 -212 -4 -3 3 14 61 37 128 57 161
65 181 70 175 3 -2 27 -69 55 -147z"/>
<path d="M3992 1353 l3 -78 118 -3 117 -3 0 -359 0 -360 80 0 80 0 0 360 0
360 120 0 120 0 0 80 0 80 -320 0 -321 0 3 -77z"/>
<path d="M4694 1407 c-3 -8 -4 -49 -2 -93 l3 -79 115 0 115 0 0 90 0 90 -113
3 c-88 2 -114 0 -118 -11z"/>
<path d="M2310 1169 c0 -129 2 -143 23 -173 17 -25 25 -31 33 -22 29 31 34 61
34 195 l0 141 -45 0 -45 0 0 -141z"/>
<path d="M4730 840 l0 -290 80 0 80 0 0 290 0 290 -80 0 -80 0 0 -290z"/>
<path d="M3833 441 c-18 -23 -20 -31 -10 -40 19 -16 72 40 55 57 -16 16 -20
15 -45 -17z"/>
<path d="M2422 433 c-39 -8 -57 -49 -57 -131 1 -69 3 -76 28 -98 38 -32 90
-32 122 1 14 13 25 31 25 40 0 21 -34 19 -55 -5 -22 -24 -38 -25 -59 -4 -19
19 -22 124 -4 142 19 19 56 14 68 -8 12 -23 50 -27 50 -6 0 23 -42 65 -70 69
-14 3 -35 3 -48 0z"/>
<path d="M3580 410 c0 -16 7 -20 35 -20 l35 0 0 -105 c0 -98 1 -105 20 -105
19 0 20 7 20 105 l0 105 35 0 c28 0 35 4 35 20 0 19 -7 20 -90 20 -83 0 -90
-1 -90 -20z"/>
<path d="M4330 410 c0 -15 7 -20 25 -20 18 0 25 5 25 20 0 15 -7 20 -25 20
-18 0 -25 -5 -25 -20z"/>
<path d="M2590 287 c0 -59 4 -77 18 -90 22 -20 53 -22 70 -5 9 9 12 9 12 0 0
-7 11 -12 25 -12 25 0 25 1 25 90 0 89 0 90 -25 90 -24 0 -25 -2 -25 -65 0
-49 -4 -67 -15 -71 -29 -12 -45 16 -45 77 0 52 -2 59 -20 59 -18 0 -20 -7 -20
-73z"/>
<path d="M2790 270 c0 -89 0 -90 25 -90 23 0 24 3 27 68 3 63 5 67 28 71 24 3
39 16 40 34 0 12 -45 8 -58 -5 -9 -9 -12 -9 -12 0 0 7 -11 12 -25 12 -25 0
-25 -1 -25 -90z"/>
<path d="M2956 344 c-19 -19 -21 -60 -3 -71 6 -4 29 -12 50 -18 51 -13 47 -30
-8 -30 -56 0 -80 -20 -41 -35 66 -25 136 0 136 48 0 24 -31 52 -57 52 -29 0
-53 10 -53 22 0 5 18 8 40 7 45 -4 75 15 50 31 -24 16 -97 12 -114 -6z"/>
<path d="M3145 340 c-29 -32 -26 -117 4 -141 35 -29 85 -25 111 9 18 22 21 36
17 76 -5 58 -24 76 -77 76 -24 0 -43 -7 -55 -20z m83 -64 c4 -45 -7 -61 -37
-51 -16 5 -21 15 -21 44 0 44 6 53 35 49 15 -2 21 -12 23 -42z"/>
<path d="M3337 342 c-20 -22 -22 -55 -4 -70 6 -5 31 -13 55 -17 57 -9 49 -30
-11 -30 -58 0 -82 -20 -43 -35 72 -27 139 0 134 53 -3 32 -12 38 -80 52 -48 9
-33 28 18 22 34 -3 47 -1 51 10 8 21 -15 33 -63 33 -27 0 -46 -6 -57 -18z"/>
<path d="M3780 340 c-29 -29 -28 -112 2 -140 25 -23 75 -26 103 -7 23 18 6 30
-43 31 -20 1 -37 7 -39 14 -3 9 11 12 51 12 55 0 56 1 56 29 0 15 -9 40 -21
55 -26 33 -79 36 -109 6z m80 -24 c0 -2 3 -11 6 -20 5 -13 -1 -16 -30 -16 -34
0 -47 15 -29 33 7 8 53 10 53 3z"/>
<path d="M3971 334 c-64 -81 21 -191 110 -143 29 15 6 42 -30 34 -39 -8 -53 6
-49 51 3 37 5 39 38 39 19 0 41 4 49 9 22 14 -15 36 -60 36 -29 0 -42 -6 -58
-26z"/>
<path d="M4140 270 c0 -83 2 -90 20 -90 17 0 19 8 22 68 3 64 4 67 28 67 24 0
25 -3 28 -67 3 -66 4 -68 29 -68 l26 0 -5 75 c-3 41 -11 81 -18 90 -15 18 -61
20 -78 3 -9 -9 -12 -9 -12 0 0 7 -9 12 -20 12 -19 0 -20 -7 -20 -90z"/>
<path d="M4330 270 c0 -89 0 -90 25 -90 25 0 25 1 25 90 0 89 0 90 -25 90 -25
0 -25 -1 -25 -90z"/>
<path d="M4440 333 c-29 -36 -23 -108 10 -135 25 -20 71 -23 101 -7 30 15 5
42 -31 34 -35 -8 -52 13 -48 57 3 30 6 33 38 33 19 0 41 4 49 9 22 14 -15 36
-60 36 -29 0 -43 -6 -59 -27z"/>
<path d="M4626 347 c-12 -9 -20 -31 -23 -63 -4 -40 -1 -54 17 -76 26 -34 76
-38 111 -9 30 24 33 109 4 141 -21 23 -81 27 -109 7z m82 -74 c3 -34 0 -42
-17 -48 -31 -9 -41 2 -41 44 0 44 6 53 35 49 16 -2 21 -12 23 -45z"/>
<path d="M4816 344 c-19 -19 -21 -60 -3 -71 6 -4 29 -12 50 -18 51 -13 47 -30
-8 -30 -56 0 -80 -20 -41 -35 62 -23 136 0 136 43 0 29 -31 56 -67 59 -20 2
-38 9 -41 16 -3 10 6 13 37 11 46 -4 76 15 51 31 -24 16 -97 12 -114 -6z"/>
</g>
</svg>
