<?xml version="1.0" standalone="no"?>
<!DOCTYPE svg PUBLIC "-//W3C//DTD SVG 20010904//EN"
 "http://www.w3.org/TR/2001/REC-SVG-20010904/DTD/svg10.dtd">
<svg version="1.0" xmlns="http://www.w3.org/2000/svg"
 width="1442.000000pt" height="409.000000pt" viewBox="0 0 1442.000000 409.000000"
 preserveAspectRatio="xMidYMid meet">

<g transform="translate(0.000000,409.000000) scale(0.100000,-0.100000)"
fill="#000000" stroke="none">
<path d="M7875 3875 c-182 -33 -305 -90 -443 -204 -85 -70 -188 -236 -231
-371 -47 -147 -52 -203 -58 -656 -6 -479 3 -648 42 -796 111 -426 423 -649
910 -648 148 0 262 21 372 68 221 94 391 279 492 535 30 76 81 254 81 283 0
12 -41 14 -251 12 l-251 -3 -30 -85 c-51 -145 -127 -237 -237 -289 -51 -24
-66 -26 -181 -26 -161 1 -218 21 -303 106 -68 69 -103 139 -123 247 -19 111
-19 884 1 996 18 103 56 178 124 247 83 83 141 103 301 104 121 0 127 -1 185
-31 63 -33 144 -111 185 -179 14 -22 37 -74 51 -115 l27 -75 251 -3 c210 -2
251 0 251 12 0 33 -53 215 -86 294 -131 317 -344 506 -643 573 -102 22 -325
24 -436 4z"/>
<path d="M6433 3869 c-17 -5 -43 -23 -57 -40 -23 -27 -26 -39 -26 -110 l0 -79
146 0 146 0 -3 79 c-4 68 -8 83 -29 107 -46 49 -106 64 -177 43z"/>
<path d="M200 2545 l0 -1325 885 0 885 0 0 240 0 240 -635 0 -635 0 0 300 0
300 535 0 535 0 0 235 0 235 -535 0 -535 0 0 310 0 310 635 0 635 0 0 240 0
240 -885 0 -885 0 0 -1325z"/>
<path d="M2440 2545 l0 -1327 528 5 c540 5 590 9 737 50 211 59 417 208 514
371 45 76 97 216 118 319 15 71 18 150 18 577 0 521 -4 574 -47 710 -93 286
-264 456 -559 554 -160 53 -222 58 -786 63 l-523 5 0 -1327z m1069 829 c165
-41 273 -138 315 -285 15 -50 16 -119 14 -565 l-3 -509 -32 -67 c-37 -79 -109
-156 -179 -191 -94 -47 -171 -57 -443 -57 l-251 0 0 845 0 845 257 0 c204 0
270 -3 322 -16z"/>
<path d="M4783 2948 c5 -973 5 -982 52 -1142 60 -205 192 -379 360 -475 158
-91 327 -131 550 -131 373 0 642 121 800 361 120 183 165 356 165 642 l0 167
-245 0 -245 0 0 -147 c0 -230 -31 -323 -139 -426 -106 -101 -283 -141 -462
-103 -173 37 -291 154 -328 325 -8 36 -11 331 -11 951 l0 900 -251 0 -250 0 4
-922z"/>
<path d="M10130 3788 c-18 -46 -243 -634 -500 -1308 -258 -674 -471 -1233
-475 -1242 -7 -17 9 -18 258 -18 l265 0 26 73 c14 39 48 135 75 212 l49 140
489 3 490 2 74 -215 74 -215 262 0 c145 0 263 3 263 8 0 4 -226 600 -502 1324
l-503 1318 -157 0 -157 0 -31 -82z m354 -1217 c86 -244 154 -446 153 -448 -2
-2 -148 -2 -323 -1 l-320 3 161 457 c88 251 163 451 166 445 4 -7 77 -212 163
-456z"/>
<path d="M11390 3630 l0 -240 360 0 360 0 0 -1085 0 -1085 245 0 245 0 0 1085
0 1085 360 0 360 0 0 240 0 240 -965 0 -965 0 0 -240z"/>
<path d="M13501 3824 c-20 -25 -21 -39 -21 -269 0 -308 -17 -285 203 -285
l157 0 0 -70 0 -70 -100 0 c-60 0 -100 -4 -100 -10 0 -6 77 -10 210 -10 133 0
210 4 210 10 0 6 -40 10 -100 10 l-100 0 0 70 0 70 158 0 c218 0 202 -23 202
287 0 228 -1 242 -21 267 l-20 26 -329 0 -329 0 -20 -26z"/>
<path d="M6350 3084 l0 -426 71 -115 c39 -63 72 -113 74 -111 1 2 35 55 74
118 l71 114 0 423 0 423 -145 0 -145 0 0 -426z"/>
<path d="M13590 2095 l0 -875 255 0 255 0 0 875 0 875 -255 0 -255 0 0 -875z"/>
<path d="M10919 909 l-73 -92 45 -38 44 -39 82 88 82 87 -47 42 c-26 23 -50
42 -54 43 -3 0 -39 -41 -79 -91z"/>
<path d="M6655 866 c-64 -29 -110 -82 -130 -148 -17 -60 -21 -359 -5 -418 19
-69 66 -129 122 -155 138 -64 291 -29 361 82 22 35 57 125 57 145 0 4 -33 8
-74 8 l-74 0 -12 -35 c-17 -53 -62 -85 -119 -85 -26 0 -56 7 -69 16 -45 31
-52 63 -52 224 0 173 10 208 65 234 70 33 137 9 169 -63 l19 -41 75 0 74 0 -7
28 c-23 95 -87 180 -160 213 -60 28 -176 26 -240 -5z"/>
<path d="M10150 820 l0 -70 105 0 105 0 0 -315 0 -315 70 0 70 0 0 315 0 315
105 0 105 0 0 70 0 70 -280 0 -280 0 0 -70z"/>
<path d="M12420 815 l0 -75 70 0 70 0 0 75 0 75 -70 0 -70 0 0 -75z"/>
<path d="M7182 463 c3 -195 4 -211 27 -256 27 -55 66 -83 126 -93 51 -7 111
15 142 54 l23 27 0 -37 0 -38 70 0 70 0 0 275 0 275 -70 0 -70 0 0 -169 c0
-174 -8 -224 -40 -241 -30 -16 -76 -11 -104 11 l-26 20 0 190 0 189 -76 0 -76
0 4 -207z"/>
<path d="M7787 663 c-4 -3 -7 -127 -7 -275 l0 -268 80 0 80 0 0 180 0 181 26
26 c22 22 32 25 79 21 l54 -5 38 55 37 54 -23 19 c-47 38 -159 19 -195 -33
-16 -22 -16 -22 -16 15 l0 37 -73 0 c-41 0 -77 -3 -80 -7z"/>
<path d="M8348 661 c-99 -32 -147 -143 -102 -237 24 -51 61 -67 200 -84 87
-11 114 -23 114 -51 0 -43 -122 -53 -217 -18 l-57 22 -33 -39 c-58 -67 -58
-69 -7 -93 111 -53 250 -64 335 -28 103 43 142 185 73 266 -29 35 -59 46 -169
61 -95 14 -125 24 -125 44 0 39 107 48 190 17 l50 -19 40 46 c22 26 40 51 40
55 0 4 -26 20 -57 35 -49 22 -74 27 -153 29 -52 1 -107 -2 -122 -6z"/>
<path d="M8928 661 c-50 -16 -90 -53 -114 -105 -20 -44 -24 -67 -24 -157 0
-115 9 -156 48 -208 75 -101 297 -101 375 0 37 50 50 114 45 231 -5 122 -26
173 -89 215 -35 23 -53 27 -127 30 -48 1 -99 -2 -114 -6z m152 -141 c41 -22
55 -156 22 -220 -33 -66 -129 -63 -157 5 -28 66 -16 184 22 213 20 14 87 16
113 2z"/>
<path d="M9487 656 c-21 -8 -48 -22 -59 -33 -67 -59 -62 -210 9 -246 28 -15
100 -30 195 -42 49 -6 78 -25 78 -51 0 -38 -128 -46 -217 -13 l-57 22 -43 -49
c-23 -27 -43 -52 -43 -56 0 -12 104 -56 165 -68 202 -41 357 65 316 218 -23
85 -54 103 -215 125 -65 9 -92 18 -100 31 -28 44 83 61 182 27 l53 -18 41 50
c40 47 41 50 23 63 -10 8 -43 23 -72 34 -64 24 -197 27 -256 6z"/>
<path d="M10830 659 c-94 -39 -132 -106 -138 -242 -5 -115 7 -169 50 -221 49
-60 100 -81 193 -80 81 0 111 10 178 57 l28 19 -26 28 c-44 46 -68 54 -103 36
-48 -25 -115 -21 -150 9 -16 14 -32 34 -35 45 -5 19 -1 20 159 20 141 0 165 2
171 16 10 28 -14 164 -39 211 -13 25 -40 60 -61 77 -36 28 -46 31 -120 33 -45
2 -93 -2 -107 -8z m145 -125 c19 -8 45 -55 45 -84 0 -19 -6 -20 -100 -20 -62
0 -100 4 -100 10 0 23 29 79 47 89 20 12 82 14 108 5z"/>
<path d="M11410 659 c-48 -19 -93 -62 -116 -113 -20 -43 -24 -67 -24 -147 0
-112 16 -169 62 -216 85 -87 290 -91 369 -7 l23 25 -45 44 -44 45 -40 -20
c-45 -23 -89 -25 -125 -7 -72 36 -82 207 -15 251 31 21 107 20 147 0 l31 -16
45 45 c53 53 51 61 -31 102 -42 21 -64 25 -131 24 -45 0 -92 -5 -106 -10z"/>
<path d="M11820 395 l0 -275 75 0 75 0 0 183 c0 218 3 227 80 227 41 0 52 -4
69 -26 19 -25 21 -40 21 -205 l0 -179 71 0 70 0 -3 213 c-3 183 -6 217 -22
250 -30 61 -69 82 -153 82 -65 0 -74 -3 -102 -29 l-29 -28 -4 28 c-3 29 -4 29
-75 32 l-73 3 0 -276z"/>
<path d="M12420 395 l0 -275 70 0 70 0 0 275 0 275 -70 0 -70 0 0 -275z"/>
<path d="M12822 657 c-54 -17 -109 -78 -128 -144 -23 -78 -16 -221 14 -279 41
-81 111 -118 222 -119 75 0 146 23 181 61 l23 25 -45 44 -44 45 -40 -20 c-22
-11 -52 -20 -68 -20 -35 0 -83 24 -97 49 -11 21 -14 159 -4 186 17 42 136 61
183 29 22 -16 24 -15 69 29 41 41 44 48 31 63 -31 38 -110 64 -189 63 -41 -1
-90 -6 -108 -12z"/>
<path d="M13332 649 c-84 -43 -112 -106 -112 -254 0 -148 29 -213 113 -257 63
-32 175 -31 242 2 90 45 119 116 113 280 -3 93 -6 110 -30 152 -42 71 -84 92
-193 96 -77 3 -96 0 -133 -19z m178 -129 c39 -21 54 -147 26 -215 -28 -66
-131 -69 -163 -5 -15 30 -17 138 -3 177 6 15 18 34 27 41 20 14 87 16 113 2z"/>
<path d="M13917 656 c-21 -8 -48 -22 -59 -33 -67 -59 -62 -210 9 -246 28 -15
100 -30 195 -42 43 -6 78 -25 78 -43 -1 -45 -117 -57 -213 -22 l-61 23 -43
-49 c-23 -27 -43 -52 -43 -56 0 -3 24 -18 53 -31 144 -68 318 -57 394 25 32
34 47 105 34 155 -23 86 -54 104 -215 126 -65 9 -92 18 -100 31 -28 44 83 61
182 27 l53 -18 41 50 c40 47 41 50 23 63 -10 8 -43 23 -72 34 -64 24 -197 27
-256 6z"/>
</g>
</svg>
